<svg width="512" height="512" viewBox="0 0 512 512" fill="none" xmlns="http://www.w3.org/2000/svg">
<g filter="url(#filter0_d_201_576)">
<path d="M141.742 231.819C121.576 271.71 117.742 269.319 108.742 332.819C99.7417 396.319 174.982 399.625 207.742 357.319C207.742 357.319 220.742 396.319 264.742 396.319C308.742 396.319 321.742 357.319 321.742 357.319C354.501 399.625 428.742 396.319 419.742 332.819C410.742 269.319 407.408 272.029 387.242 232.138C368.588 211.483 354.828 205.501 321.742 207.319L207.742 207.319C174.655 205.501 160.396 211.163 141.742 231.819Z" fill="#F8BA62"/>
</g>
<path d="M108.5 346C117.704 300.591 126 269 146.5 239C167 232 170.5 227 193.5 212.5C231 212.5 313 212.5 361.5 212.5" stroke="white" stroke-opacity="0.4" stroke-width="18"/>
<path d="M141.742 231.819C121.576 271.71 117.742 269.319 108.742 332.819C99.7417 396.319 174.982 399.625 207.742 357.319C207.742 357.319 220.742 396.319 264.742 396.319C308.742 396.319 321.742 357.319 321.742 357.319C354.501 399.625 428.742 396.319 419.742 332.819C410.742 269.319 407.408 272.029 387.242 232.138C368.588 211.483 354.828 205.501 321.742 207.319L207.742 207.319C174.655 205.501 160.396 211.163 141.742 231.819Z" stroke="#00002A" stroke-width="20"/>
<path d="M126.5 261C140 207 171.5 194 209.5 207" stroke="#00002A" stroke-width="19"/>
<path d="M402 260.663C388.5 206.663 357 193.663 319 206.663" stroke="#00002A" stroke-width="19"/>
<g opacity="0.78">
<path d="M209.5 410L202 402L191.5 428L209.5 410Z" fill="#F8BA62" stroke="#F7B24F"/>
<path d="M316.5 409.5L323 401L335.5 424.5L316.5 409.5Z" fill="#F8BA62" stroke="#F7B24F"/>
<path d="M102 395L91.5 383L80 409.5L102 395Z" fill="#F8BA62" stroke="#F7B24F"/>
<path d="M429 393L436 383L453 411L429 393Z" fill="#F8BA62" stroke="#F7B24F"/>
<path d="M443.234 301.685L439.234 291.907L469.234 294.685L443.234 301.685Z" fill="#F8BA62" stroke="#F7B24F"/>
<path d="M447 343.5V339.5L452.5 340.5L451.5 344L447 343.5Z" fill="#F8BA62" stroke="#F7B24F"/>
<path d="M86.2349 252.489L82.1563 262.382L64 242.918L86.2349 252.489Z" fill="#F8BA62" stroke="#F7B24F"/>
<path d="M430.5 255.5L430 250L437.5 249L440 252L430.5 255.5Z" fill="#F8BA62" stroke="#F7B24F"/>
<path d="M78 294.508L82 304.286L52 301.508L78 294.508Z" fill="#F8BA62" stroke="#F7B24F"/>
<circle cx="73.5" cy="342.5" r="4" fill="#F8BA62" stroke="#F7B24F"/>
</g>
<path d="M229.5 288.903C224.5 288.903 208.413 281.266 213 310.403C217.587 339.54 243 370.903 264 370.903C285 370.903 310.413 339.54 315 310.403C319.587 281.266 303.5 288.903 298.5 288.903L264 288.903H229.5Z" fill="#00002A"/>
<path d="M249 357C243.943 347.731 273 333 291 339C309 345 266.163 372.771 249 357Z" fill="#FA2959"/>
<path opacity="0.5" d="M256 351.5C239.5 349 278.5 335 275.5 338.5C272.5 342 265.5 353.5 256 351.5Z" fill="white"/>
<rect x="223" y="295" width="86" height="15" rx="1" fill="#FBFBFB"/>
<mask id="mask0_201_576" style="mask-type:alpha" maskUnits="userSpaceOnUse" x="208" y="239" width="31" height="37">
<ellipse cx="223.5" cy="257.5" rx="15.5" ry="18.5" fill="black"/>
</mask>
<g mask="url(#mask0_201_576)">
<ellipse cx="223.5" cy="257.5" rx="15.5" ry="18.5" fill="#00002A"/>
<path d="M219.5 239.5C206.5 246 205 259.5 205 259.5" stroke="white" stroke-width="6" stroke-linejoin="round"/>
</g>
<mask id="mask1_201_576" style="mask-type:alpha" maskUnits="userSpaceOnUse" x="287" y="239" width="31" height="37">
<ellipse cx="302.5" cy="257.5" rx="15.5" ry="18.5" fill="black"/>
</mask>
<g mask="url(#mask1_201_576)">
<ellipse cx="302.5" cy="257.5" rx="15.5" ry="18.5" fill="#00002A"/>
<path d="M298.5 239.5C285.5 246 284 259.5 284 259.5" stroke="white" stroke-width="6" stroke-linejoin="round"/>
</g>
<mask id="mask2_201_576" style="mask-type:alpha" maskUnits="userSpaceOnUse" x="327" y="278" width="24" height="24">
<circle cx="339" cy="290" r="12" fill="black"/>
</mask>
<g mask="url(#mask2_201_576)">
<circle cx="339" cy="290" r="12" fill="#FA2959"/>
<path d="M346 284C352.222 292.889 339 304 332.151 296.543C339 304 342.012 304.988 348.5 298.5C354.988 292.012 346 284 346 284Z" fill="#00002A"/>
<path d="M346 283.5C331.069 278.181 330.431 291.065 332.444 297.586C334.238 300.202 335.742 301.779 334.348 300.95C333.671 300.547 332.968 299.282 332.444 297.586C330.01 294.037 327.04 288.577 330.038 284.616C335.246 277.736 339.103 279.007 346 283.5Z" fill="white" fill-opacity="0.45"/>
</g>
<circle cx="339" cy="290" r="12" stroke="#00002A" stroke-width="6"/>
<mask id="mask3_201_576" style="mask-type:alpha" maskUnits="userSpaceOnUse" x="348" y="255" width="24" height="24">
<circle cx="360" cy="267" r="12" fill="black"/>
</mask>
<g mask="url(#mask3_201_576)">
<circle cx="360" cy="267" r="12" fill="#FA2959"/>
<path d="M367 261C373.222 269.889 360 281 353.151 273.543C360 281 363.012 281.988 369.5 275.5C375.988 269.012 367 261 367 261Z" fill="#00002A"/>
<path d="M367 260.5C352.069 255.181 351.431 268.065 353.444 274.586C355.238 277.202 356.742 278.779 355.348 277.95C354.671 277.547 353.968 276.282 353.444 274.586C351.01 271.037 348.04 265.577 351.038 261.616C356.246 254.736 360.103 256.007 367 260.5Z" fill="white" fill-opacity="0.45"/>
</g>
<circle cx="360" cy="267" r="12" stroke="#00002A" stroke-width="6"/>
<mask id="mask4_201_576" style="mask-type:alpha" maskUnits="userSpaceOnUse" x="348" y="302" width="24" height="24">
<circle cx="360" cy="314" r="12" fill="black"/>
</mask>
<g mask="url(#mask4_201_576)">
<circle cx="360" cy="314" r="12" fill="#01DEF0"/>
<path d="M367 308C373.222 316.889 360 328 353.151 320.543C360 328 363.012 328.988 369.5 322.5C375.988 316.012 367 308 367 308Z" fill="#00002A"/>
<path d="M367 307.5C352.069 302.181 351.431 315.065 353.444 321.586C355.238 324.202 356.742 325.779 355.348 324.95C354.671 324.547 353.968 323.282 353.444 321.586C351.01 318.037 348.04 312.577 351.038 308.616C356.246 301.736 360.103 303.007 367 307.5Z" fill="white" fill-opacity="0.45"/>
</g>
<circle cx="360" cy="314" r="12" stroke="#00002A" stroke-width="6"/>
<mask id="mask5_201_576" style="mask-type:alpha" maskUnits="userSpaceOnUse" x="369" y="278" width="24" height="24">
<circle cx="381" cy="290" r="12" fill="black"/>
</mask>
<g mask="url(#mask5_201_576)">
<circle cx="381" cy="290" r="12" fill="#01DEF0"/>
<path d="M388 284C394.222 292.889 381 304 374.151 296.543C381 304 384.012 304.988 390.5 298.5C396.988 292.012 388 284 388 284Z" fill="#00002A"/>
<path d="M388 283.5C373.069 278.181 372.431 291.065 374.444 297.586C376.238 300.202 377.742 301.779 376.348 300.95C375.671 300.547 374.968 299.282 374.444 297.586C372.01 294.037 369.04 288.577 372.038 284.616C377.246 277.736 381.103 279.007 388 283.5Z" fill="white" fill-opacity="0.45"/>
</g>
<circle cx="381" cy="290" r="12" stroke="#00002A" stroke-width="6"/>
<rect x="142" y="276.312" width="55" height="22.8438" rx="9" stroke="#00002A" stroke-width="6"/>
<rect x="180.922" y="261" width="55" height="22.8438" rx="9" transform="rotate(90 180.922 261)" stroke="#00002A" stroke-width="6"/>
<rect x="145" y="279.312" width="49" height="16.8438" rx="6" fill="#FBFBFB"/>
<rect x="177.922" y="264" width="49" height="16.8438" rx="6" transform="rotate(90 177.922 264)" fill="#FBFBFB"/>
<mask id="mask6_201_576" style="mask-type:alpha" maskUnits="userSpaceOnUse" x="235" y="112" width="63" height="67">
<rect x="235" y="112" width="63" height="67" rx="9" fill="black"/>
</mask>
<g mask="url(#mask6_201_576)">
<rect x="235" y="112" width="63" height="67" rx="9" fill="#01DEF0"/>
<path d="M244.089 153.982C244.304 160.779 237.669 165.615 231.79 162.198C223.328 157.279 212.425 149.767 203.945 139.901C190.725 124.52 238.477 94.8601 256.468 84.4813C260.26 82.2941 265.026 83.3057 267.719 86.7561L282.321 105.462C286.934 111.372 282.705 119.844 275.209 119.92C252.687 120.146 243.129 123.663 244.089 153.982Z" fill="white" fill-opacity="0.45"/>
<path d="M289.132 137.239C288.917 130.442 295.552 125.606 301.431 129.023C309.893 133.942 320.796 141.454 329.276 151.321C342.496 166.701 294.745 196.361 276.753 206.74C272.961 208.927 268.195 207.915 265.502 204.465L250.9 185.759C246.287 179.85 250.516 171.377 258.012 171.302C280.534 171.075 290.092 167.559 289.132 137.239Z" fill="black" fill-opacity="0.22"/>
</g>
<rect x="238" y="115" width="57" height="61" rx="6" stroke="#00002A" stroke-width="6"/>
<mask id="mask7_201_576" style="mask-type:alpha" maskUnits="userSpaceOnUse" x="357" y="134" width="49" height="56">
<rect x="377.482" y="131" width="35.3018" height="51.684" rx="9" transform="rotate(27.0227 377.482 131)" fill="black"/>
</mask>
<g mask="url(#mask7_201_576)">
<rect x="377.482" y="131" width="35.3018" height="51.684" rx="9" transform="rotate(27.0227 377.482 131)" fill="#01DEF0"/>
<path d="M369.842 157.174C366.14 164.015 358.815 166.427 356.537 160.484C354.599 155.43 352.798 149.145 352.202 142.267C351.059 129.082 381.64 121.01 395.625 118.017C399.573 117.172 402.575 120.005 402.775 124.539L403.12 132.33C403.463 140.096 396.078 146.821 390.209 144.669C382.511 141.845 377.164 143.645 369.842 157.174Z" fill="white" fill-opacity="0.45"/>
<path d="M393.121 167.115C396.823 160.274 404.148 157.862 406.426 163.805C408.364 168.859 410.165 175.144 410.761 182.022C411.904 195.207 381.323 203.279 367.338 206.272C363.39 207.117 360.388 204.284 360.188 199.75L359.843 191.958C359.5 184.193 366.885 177.467 372.754 179.62C380.452 182.444 385.799 180.644 393.121 167.115Z" fill="black" fill-opacity="0.22"/>
</g>
<rect x="378.792" y="135.036" width="29.3018" height="45.684" rx="6" transform="rotate(27.0227 378.792 135.036)" stroke="#00002A" stroke-width="6"/>
<mask id="mask8_201_576" style="mask-type:alpha" maskUnits="userSpaceOnUse" x="186" y="148" width="38" height="38">
<rect x="184" y="155.81" width="34.0563" height="32.8948" rx="9" transform="rotate(-16.7408 184 155.81)" fill="black"/>
</mask>
<g mask="url(#mask8_201_576)">
<rect x="184" y="155.81" width="34.0563" height="32.8948" rx="9" transform="rotate(-16.7408 184 155.81)" fill="#FA2959"/>
<path d="M192.934 167.448C193.845 173.862 188.85 180.139 182.252 178.13C178.809 177.081 175.188 175.666 171.87 173.763C163.719 169.088 179.698 151.176 188.641 142.101C191.742 138.954 196.739 138.445 200.338 140.745V140.745C206.502 144.684 204.126 152.683 197.535 156.662C193.789 158.924 192.158 161.98 192.934 167.448Z" fill="white" fill-opacity="0.45"/>
<path d="M217.299 165.932C216.389 159.518 221.384 153.241 227.982 155.25C231.425 156.299 235.046 157.714 238.364 159.617C246.515 164.292 230.536 182.204 221.593 191.279C218.492 194.426 213.495 194.935 209.896 192.635V192.635C203.732 188.696 206.108 180.697 212.698 176.718C216.445 174.456 218.076 171.4 217.299 165.932Z" fill="black" fill-opacity="0.22"/>
</g>
<rect x="187.737" y="157.818" width="28.0563" height="26.8948" rx="6" transform="rotate(-16.7408 187.737 157.818)" stroke="#00002A" stroke-width="6"/>
<mask id="mask9_201_576" style="mask-type:alpha" maskUnits="userSpaceOnUse" x="394" y="175" width="48" height="48">
<rect x="417.63" y="172" width="38.9904" height="37.6606" rx="9" transform="rotate(45 417.63 172)" fill="black"/>
</mask>
<g mask="url(#mask9_201_576)">
<rect x="417.63" y="172" width="38.9904" height="37.6606" rx="9" transform="rotate(45 417.63 172)" fill="#FA2959"/>
<path d="M409.113 188.607C404.18 192.792 396.191 191.236 394.64 184.497C393.582 179.902 392.808 174.672 392.95 169.499C393.253 158.494 421.238 165.46 434.933 169.534C439.223 170.81 442.078 175.023 441.752 179.336L441.499 182.68C440.941 190.068 432.457 192.2 426.185 187.51C420.559 183.304 415.856 182.884 409.113 188.607Z" fill="white" fill-opacity="0.45"/>
<path d="M427.096 209.779C432.029 205.593 440.018 207.149 441.57 213.888C442.628 218.483 443.402 223.713 443.259 228.886C442.956 239.891 414.971 232.926 401.277 228.852C396.986 227.575 394.131 223.362 394.458 219.049L394.71 215.705C395.269 208.317 403.752 206.186 410.024 210.875C415.65 215.081 420.353 215.501 427.096 209.779Z" fill="black" fill-opacity="0.22"/>
</g>
<rect x="417.63" y="176.243" width="32.9904" height="31.6606" rx="6" transform="rotate(45 417.63 176.243)" stroke="#00002A" stroke-width="6"/>
<mask id="mask10_201_576" style="mask-type:alpha" maskUnits="userSpaceOnUse" x="125" y="133" width="51" height="54">
<rect x="123" y="145.68" width="41.0944" height="47" rx="9" transform="rotate(-20.9294 123 145.68)" fill="black"/>
</mask>
<g mask="url(#mask10_201_576)">
<rect x="123" y="145.68" width="41.0944" height="47" rx="9" transform="rotate(-20.9294 123 145.68)" fill="#01DEF0"/>
<path d="M137.256 166.387C139.572 173.038 135.464 179.914 128.967 178.277C123.402 176.874 116.972 174.664 111.071 171.196C99.7957 164.571 118.615 136.822 127.745 124.56C130.312 121.111 134.975 120.451 138.674 122.862L145.163 127.092C151.499 131.221 150.71 140.588 144.229 143.778C135.626 148.012 132.621 153.079 137.256 166.387Z" fill="white" fill-opacity="0.45"/>
<path d="M164.106 154.285C161.79 147.634 165.898 140.758 172.395 142.395C177.96 143.798 184.39 146.008 190.291 149.475C201.567 156.101 182.748 183.85 173.618 196.112C171.05 199.561 166.388 200.221 162.689 197.81L156.199 193.58C149.864 189.451 150.652 180.084 157.133 176.894C165.736 172.66 168.741 167.593 164.106 154.285Z" fill="black" fill-opacity="0.22"/>
</g>
<rect x="126.874" y="147.41" width="35.0944" height="41" rx="6" transform="rotate(-20.9294 126.874 147.41)" stroke="#00002A" stroke-width="6"/>
<rect x="153.478" y="168.243" width="11.959" height="11.959" rx="2" transform="rotate(-151.179 153.478 168.243)" fill="white" fill-opacity="0.5"/>
<mask id="mask11_201_576" style="mask-type:alpha" maskUnits="userSpaceOnUse" x="309" y="146" width="40" height="40">
<rect x="316.332" y="144" width="35.2899" height="36.0571" rx="9" transform="rotate(15 316.332 144)" fill="black"/>
</mask>
<g mask="url(#mask11_201_576)">
<rect x="316.332" y="144" width="35.2899" height="36.0571" rx="9" transform="rotate(15 316.332 144)" fill="#FA2959"/>
<path d="M317.289 160.801C314.874 167.014 307.38 169.854 302.923 164.66C300.279 161.578 297.644 157.959 295.643 154.001C291.072 144.958 315.615 137.095 328.444 133.669C332.712 132.529 337.16 134.746 338.939 138.722L339.47 139.911C342.515 146.721 336.286 152.81 328.664 152.426C323.356 152.158 319.868 154.166 317.289 160.801Z" fill="white" fill-opacity="0.45"/>
<path d="M340.219 171.308C342.634 165.095 350.129 162.255 354.585 167.449C357.229 170.531 359.865 174.15 361.865 178.108C366.437 187.151 341.894 195.014 329.065 198.44C324.796 199.58 320.348 197.363 318.57 193.387L318.038 192.199C314.993 185.388 321.222 179.299 328.844 179.683C334.152 179.951 337.64 177.943 340.219 171.308Z" fill="black" fill-opacity="0.22"/>
</g>
<rect x="318.454" y="147.674" width="29.2899" height="30.0571" rx="6" transform="rotate(15 318.454 147.674)" stroke="#00002A" stroke-width="6"/>
<mask id="mask12_201_576" style="mask-type:alpha" maskUnits="userSpaceOnUse" x="71" y="163" width="60" height="60">
<rect x="68" y="192.527" width="46" height="47" rx="9" transform="rotate(-45 68 192.527)" fill="black"/>
</mask>
<g mask="url(#mask12_201_576)">
<rect x="68" y="192.527" width="46" height="47" rx="9" transform="rotate(-45 68 192.527)" fill="#FA2959"/>
<path d="M90.5514 205.742C95.1679 210.546 93.7461 218.581 87.0762 220.171C80.8593 221.652 73.3054 222.817 65.8058 222.4C52.0023 221.633 60.4467 185.699 64.8417 169.89C66.0254 165.632 70.1678 162.884 74.5006 163.332L84.0038 164.316C91.4243 165.083 94.0881 173.85 89.0395 179.59C81.34 188.343 79.968 194.729 90.5514 205.742Z" fill="white" fill-opacity="0.45"/>
<path d="M111.433 180.014C106.817 175.21 108.239 167.175 114.909 165.586C121.125 164.104 128.679 162.939 136.179 163.356C149.982 164.124 141.538 200.057 137.143 215.866C135.959 220.124 131.817 222.872 127.484 222.424L117.981 221.441C110.56 220.673 107.897 211.906 112.945 206.167C120.645 197.414 122.017 191.028 111.433 180.014Z" fill="black" fill-opacity="0.22"/>
</g>
<rect x="72.2426" y="192.527" width="40" height="41" rx="6" transform="rotate(-45 72.2426 192.527)" stroke="#00002A" stroke-width="6"/>
<path d="M265.549 128.927C265.848 128.006 267.152 128.006 267.451 128.927L270.654 138.783C270.787 139.195 271.171 139.474 271.605 139.474H281.968C282.937 139.474 283.339 140.714 282.556 141.283L274.172 147.375C273.821 147.629 273.674 148.081 273.808 148.493L277.011 158.349C277.31 159.27 276.256 160.036 275.472 159.467L267.088 153.375C266.737 153.121 266.263 153.121 265.912 153.375L257.528 159.467C256.744 160.036 255.69 159.27 255.989 158.349L259.192 148.493C259.326 148.081 259.179 147.629 258.828 147.375L250.444 141.283C249.661 140.714 250.063 139.474 251.032 139.474H261.395C261.829 139.474 262.213 139.195 262.346 138.783L265.549 128.927Z" fill="white" fill-opacity="0.5"/>
<path d="M202.236 161.042C202.409 160.298 203.319 160.014 203.884 160.528L211.449 167.415C212.02 167.935 211.811 168.879 211.074 169.109L201.204 172.19C200.466 172.42 199.758 171.762 199.932 171.01L202.236 161.042Z" fill="white" fill-opacity="0.5"/>
<path d="M414.13 205.388C412.696 205.711 411.414 204.43 411.738 202.996L413.294 196.11C413.641 194.573 415.545 194.022 416.659 195.136L421.99 200.467C423.103 201.581 422.552 203.485 421.016 203.832L414.13 205.388Z" fill="white" fill-opacity="0.5"/>
<rect x="417.783" y="189.786" width="13.2678" height="2.09491" rx="1.04745" transform="rotate(45 417.783 189.786)" fill="white" fill-opacity="0.5"/>
<rect x="393.246" y="157.208" width="24.7559" height="3.71693" rx="1" transform="rotate(149.679 393.246 157.208)" fill="white" fill-opacity="0.5"/>
<rect x="332.788" y="174.197" width="12.224" height="13.4416" rx="2" transform="rotate(-164.659 332.788 174.197)" fill="white" fill-opacity="0.5"/>
<circle cx="101" cy="193" r="9" fill="white" fill-opacity="0.5"/>
<g filter="url(#filter1_d_201_576)">
<rect x="168.004" y="110.095" width="41.9921" height="18.3723" rx="9" transform="rotate(-20.0144 168.004 110.095)" stroke="#00002A" stroke-width="6"/>
<rect x="192.514" y="89.1964" width="41.9921" height="18.3723" rx="9" transform="rotate(69.9856 192.514 89.1964)" stroke="#00002A" stroke-width="6"/>
<rect x="171.85" y="111.887" width="35.9921" height="12.3723" rx="6" transform="rotate(-20.0144 171.85 111.887)" fill="#01DEF0"/>
<rect x="190.722" y="93.042" width="35.9921" height="12.3723" rx="6" transform="rotate(69.9856 190.722 93.042)" fill="#01DEF0"/>
<g opacity="0.5">
<mask id="mask13_201_576" style="mask-type:alpha" maskUnits="userSpaceOnUse" x="173" y="94" width="36" height="36">
<path d="M173.358 116.028C172.525 113.741 173.704 111.211 175.991 110.378L201.527 101.077C203.814 100.244 206.343 101.422 207.176 103.709L208.394 107.052C209.227 109.339 208.048 111.869 205.761 112.702L180.225 122.003C177.938 122.837 175.409 121.658 174.576 119.371L173.358 116.028Z" fill="#FBFBFB"/>
<path d="M186.581 94.5504C188.868 93.7173 191.397 94.896 192.23 97.183L201.532 122.719C202.365 125.006 201.186 127.536 198.899 128.369L195.556 129.587C193.269 130.42 190.74 129.241 189.907 126.954L180.605 101.418C179.772 99.1305 180.951 96.6012 183.238 95.7681L186.581 94.5504Z" fill="#FBFBFB"/>
</mask>
<g mask="url(#mask13_201_576)">
<path d="M175.324 114.872C172.046 119.14 172.787 129.025 168.113 125.681C165.134 123.55 163.403 117.295 166.62 101.821C172.643 72.8535 186.992 85.2983 192.083 90.8781C193.334 92.249 194.068 94.0396 193.887 95.8135C192.757 106.861 179.271 109.733 175.324 114.872Z" fill="white" fill-opacity="0.45"/>
</g>
</g>
</g>
<g filter="url(#filter2_d_201_576)">
<rect x="323.76" y="97.128" width="41.9921" height="18.3723" rx="9" transform="rotate(30 323.76 97.128)" stroke="#00002A" stroke-width="6"/>
<rect x="355.522" y="102.478" width="41.9921" height="18.3723" rx="9" transform="rotate(120 355.522 102.478)" stroke="#00002A" stroke-width="6"/>
<rect x="324.858" y="101.226" width="35.9921" height="12.3723" rx="6" transform="rotate(30 324.858 101.226)" fill="#F7B24F"/>
<rect x="351.424" y="103.576" width="35.9921" height="12.3723" rx="6" transform="rotate(120 351.424 103.576)" fill="#F7B24F"/>
<g opacity="0.5">
<mask id="mask14_201_576" style="mask-type:alpha" maskUnits="userSpaceOnUse" x="320" y="99" width="35" height="35">
<path d="M322.654 105.043C323.871 102.935 326.566 102.213 328.674 103.43L352.211 117.018C354.319 118.235 355.041 120.931 353.824 123.039L352.045 126.12C350.828 128.228 348.133 128.95 346.025 127.733L322.488 114.144C320.38 112.927 319.658 110.232 320.875 108.124L322.654 105.043Z" fill="#FBFBFB"/>
<path d="M347.607 101.373C349.715 102.59 350.437 105.285 349.22 107.393L335.631 130.93C334.414 133.038 331.719 133.76 329.611 132.543L326.53 130.764C324.422 129.547 323.7 126.852 324.917 124.744L338.506 101.207C339.723 99.0992 342.418 98.3769 344.526 99.5939L347.607 101.373Z" fill="#FBFBFB"/>
</mask>
<g mask="url(#mask14_201_576)">
<path d="M324.803 105.807C319.427 106.038 312.329 112.957 311.887 107.228C311.606 103.575 315.286 98.2295 329.209 90.751C355.275 76.7511 354.961 95.7428 353.957 103.229C353.71 105.069 352.81 106.782 351.334 107.783C342.143 114.016 331.276 105.528 324.803 105.807Z" fill="white" fill-opacity="0.45"/>
</g>
</g>
</g>
<defs>
<filter id="filter0_d_201_576" x="103" y="202" width="326.493" height="203.319" filterUnits="userSpaceOnUse" color-interpolation-filters="sRGB">
<feFlood flood-opacity="0" result="BackgroundImageFix"/>
<feColorMatrix in="SourceAlpha" type="matrix" values="0 0 0 0 0 0 0 0 0 0 0 0 0 0 0 0 0 0 127 0" result="hardAlpha"/>
<feOffset dx="2" dy="2"/>
<feGaussianBlur stdDeviation="3.5"/>
<feComposite in2="hardAlpha" operator="out"/>
<feColorMatrix type="matrix" values="0 0 0 0 0 0 0 0 0 0 0 0 0 0 0 0 0 0 0.09 0"/>
<feBlend mode="normal" in2="BackgroundImageFix" result="effect1_dropShadow_201_576"/>
<feBlend mode="normal" in="SourceGraphic" in2="effect1_dropShadow_201_576" result="shape"/>
</filter>
<filter id="filter1_d_201_576" x="162.537" y="83.7299" width="60.6771" height="60.6771" filterUnits="userSpaceOnUse" color-interpolation-filters="sRGB">
<feFlood flood-opacity="0" result="BackgroundImageFix"/>
<feColorMatrix in="SourceAlpha" type="matrix" values="0 0 0 0 0 0 0 0 0 0 0 0 0 0 0 0 0 0 127 0" result="hardAlpha"/>
<feOffset dx="2" dy="2"/>
<feGaussianBlur stdDeviation="3.5"/>
<feComposite in2="hardAlpha" operator="out"/>
<feColorMatrix type="matrix" values="0 0 0 0 0 0 0 0 0 0 0 0 0 0 0 0 0 0 0.09 0"/>
<feBlend mode="normal" in2="BackgroundImageFix" result="effect1_dropShadow_201_576"/>
<feBlend mode="normal" in="SourceGraphic" in2="effect1_dropShadow_201_576" result="shape"/>
</filter>
<filter id="filter2_d_201_576" x="307.485" y="86.4854" width="63.1661" height="63.1661" filterUnits="userSpaceOnUse" color-interpolation-filters="sRGB">
<feFlood flood-opacity="0" result="BackgroundImageFix"/>
<feColorMatrix in="SourceAlpha" type="matrix" values="0 0 0 0 0 0 0 0 0 0 0 0 0 0 0 0 0 0 127 0" result="hardAlpha"/>
<feOffset dx="2" dy="2"/>
<feGaussianBlur stdDeviation="3.5"/>
<feComposite in2="hardAlpha" operator="out"/>
<feColorMatrix type="matrix" values="0 0 0 0 0 0 0 0 0 0 0 0 0 0 0 0 0 0 0.09 0"/>
<feBlend mode="normal" in2="BackgroundImageFix" result="effect1_dropShadow_201_576"/>
<feBlend mode="normal" in="SourceGraphic" in2="effect1_dropShadow_201_576" result="shape"/>
</filter>
</defs>
</svg>
